<?xml version="1.0" encoding="UTF-8" standalone="no"?>
<!-- Created with Inkscape (http://www.inkscape.org/) -->

<svg
   xmlns:sketch="http://www.bohemiancoding.com/sketch/ns"
   xmlns:dc="http://purl.org/dc/elements/1.1/"
   xmlns:cc="http://creativecommons.org/ns#"
   xmlns:rdf="http://www.w3.org/1999/02/22-rdf-syntax-ns#"
   xmlns:svg="http://www.w3.org/2000/svg"
   xmlns="http://www.w3.org/2000/svg"
   xmlns:sodipodi="http://sodipodi.sourceforge.net/DTD/sodipodi-0.dtd"
   xmlns:inkscape="http://www.inkscape.org/namespaces/inkscape"
   id="svg2"
   version="1.1"
   inkscape:version="0.92.1 r15371"
   width="793.70129"
   height="1122.52"
   xml:space="preserve"
   sodipodi:docname="cover.svg"
   viewBox="0 0 744.09497 1052.3625"><metadata
     id="metadata8"><rdf:RDF><cc:Work
         rdf:about=""><dc:format>image/svg+xml</dc:format><dc:type
           rdf:resource="http://purl.org/dc/dcmitype/StillImage" /><dc:title /></cc:Work></rdf:RDF></metadata><defs
     id="defs6"><clipPath
       clipPathUnits="userSpaceOnUse"
       id="clipPath22"><path
         d="m 494.762,817.23 h 71.863 v -31.129 h -71.863 z"
         id="path24"
         inkscape:connector-curvature="0" /></clipPath><clipPath
       clipPathUnits="userSpaceOnUse"
       id="clipPath30"><path
         d="M 0,0 H 596 V 842 H 0 Z"
         id="path32"
         inkscape:connector-curvature="0" /></clipPath><clipPath
       clipPathUnits="userSpaceOnUse"
       id="clipPath34"><path
         d="M 0,0 H 596 V 842 H 0 Z"
         id="path36"
         inkscape:connector-curvature="0" /></clipPath><clipPath
       clipPathUnits="userSpaceOnUse"
       id="clipPath38"><path
         d="M 0,0 H 596 V 842 H 0 Z"
         id="path40"
         inkscape:connector-curvature="0" /></clipPath><clipPath
       clipPathUnits="userSpaceOnUse"
       id="clipPath80"><path
         d="M 0,0 H 596 V 842 H 0 Z"
         id="path82"
         inkscape:connector-curvature="0" /></clipPath></defs><sodipodi:namedview
     pagecolor="#ffffff"
     bordercolor="#666666"
     borderopacity="1"
     objecttolerance="10"
     gridtolerance="10"
     guidetolerance="10"
     inkscape:pageopacity="0"
     inkscape:pageshadow="2"
     inkscape:window-width="1920"
     inkscape:window-height="1001"
     id="namedview4"
     showgrid="false"
     inkscape:zoom="0.57884795"
     inkscape:cx="419.14048"
     inkscape:cy="589.41245"
     inkscape:window-x="-9"
     inkscape:window-y="-9"
     inkscape:window-maximized="1"
     inkscape:current-layer="g10"
     showguides="true"
     inkscape:guide-bbox="true"><sodipodi:guide
       position="80.165927,-26.340233"
       orientation="1,0"
       id="guide4538"
       inkscape:locked="false" /><sodipodi:guide
       position="-144.14407,32.391926"
       orientation="0,1"
       id="guide4540"
       inkscape:locked="false" /><sodipodi:guide
       position="654.31691,662.41488"
       orientation="1,0"
       id="guide4550"
       inkscape:locked="false" /></sodipodi:namedview><g
     id="g10"
     inkscape:groupmode="layer"
     inkscape:label="cover"
     transform="matrix(1.25,0,0,-1.25,0,1052.3625)"><path
       inkscape:connector-curvature="0"
       id="path14"
       style="fill:#635c5c;fill-opacity:1;fill-rule:nonzero;stroke:none"
       d="M 0,284.554 H 520.914 V 127.062 H 0 Z" /><g
       id="g18"
       transform="translate(-40.601472,-761.91448)"><g
         id="g20"
         clip-path="url(#clipPath22)"><g
           id="g26"
           transform="translate(0,-0.109985)"><g
             id="g28" /><g
             id="g42"><g
               clip-path="url(#clipPath30)"
               id="g44"><g
                 id="g46"><g
                   id="g48"><g
                     id="g50" /><g
                     id="g52"><g
                       clip-path="url(#clipPath34)"
                       id="g54"><g
                         id="g56" /><g
                         id="g58"><g
                           id="g60"><g
                             id="g62" /><g
                             id="g64"><g
                               clip-path="url(#clipPath38)"
                               id="g66"><g
                                 id="g68" /><g
                                 id="g70"><path
                                   d="m 498.094,790.246 c 2.84,0.34 17.5,0.164 17.633,5.613 v -0.132 l -0.067,0.461 0.067,-0.196 -0.133,0.395 0.066,-0.133 c -2.75,3.902 -13.441,5.101 -16.176,8.781 -0.066,0.067 -0.066,0.133 -0.132,0.133 l -0.2,0.395 c 0,0.07 -0.066,0.132 -0.066,0.265 l -0.066,0.332 c -0.063,0.067 -0.063,0.133 -0.063,0.195 0.023,9.106 26.504,11.02 30.238,3.899 0.063,0 0.063,-0.066 0.063,-0.133 0.996,-1.422 0.449,-4.414 0.133,-6.008 -0.903,-4.789 -2.688,-10.347 -2.11,-15.254 l -2.246,-0.129 c -0.359,4.829 0.817,9.79 1.914,14.458 0.239,1.437 1.137,4.519 0.395,5.941 L 527.41,809 c -2.801,4.141 -11.816,3.391 -16.109,3.035 -1.875,-0.101 -10.492,-2.402 -10.102,-5.613 l -0.066,0.199 0.066,-0.328 -0.066,0.262 0.199,-0.328 -0.133,0.195 c 0.692,-1.551 6.86,-3.352 8.121,-4.027 2.293,-0.868 7.09,-2.657 8.188,-5.016 0.066,-0.066 0.066,-0.133 0.133,-0.199 l 0.132,-0.395 c 0.063,-0.066 0.063,-0.199 0.063,-0.265 l 0.066,-0.461 c 0,0 0,-0.067 0.067,-0.133 -0.356,-7.86 -14.879,-7.36 -19.809,-7.86"
                                   style="fill:#0065bd;fill-opacity:1;fill-rule:nonzero;stroke:none"
                                   id="path72"
                                   inkscape:connector-curvature="0" /></g></g></g></g></g></g></g></g></g></g></g></g></g></g><path
       inkscape:connector-curvature="0"
       id="path92"
       style="fill:#0065bd;fill-opacity:1;fill-rule:nonzero;stroke:none"
       d="m 481.85953,38.85453 c 6.766,1.004 13.84,0.754 20.664,0.394 3.348,-0.375 6.031,0.934 8.582,0.461 0.066,0 0.133,0 0.199,-0.066 l 0.395,-0.129 c 0.066,-0.066 0.133,-0.066 0.199,-0.133 l 0.328,-0.199 c 0.07,-0.066 0.07,-0.066 0.133,-0.133 l 0.598,-0.594 0.195,-0.261 0.266,-0.598 c 0,-0.062 0.066,-0.129 0.066,-0.195 l 0.133,-0.465 c 0.062,-0.063 0.062,-0.129 0.062,-0.129 0.469,-3.09 -1.277,-6.512 -0.926,-10.102 l -2.175,-0.132 c -0.434,3.914 1.3,6.84 0.925,9.836 l 0.067,-0.133 -0.199,0.465 0.066,-0.133 -0.133,0.328 -0.133,0.133 v 0.133 l -0.332,0.265 0.133,-0.133 -0.328,0.262 0.195,-0.129 -0.328,0.129 0.133,-0.062 c -2.207,0.332 -5.055,-0.879 -8.254,-0.465 -6.66,0.301 -13.605,0.633 -20.203,-0.395" /><path
       inkscape:connector-curvature="0"
       id="path94"
       style="fill:#0065bd;fill-opacity:1;fill-rule:nonzero;stroke:none"
       d="m 489.98053,26.57353 c 0.195,3.937 2.004,14.414 5.348,17.363 0.062,0 0.062,0.066 0.129,0.066 l 0.265,0.20001 c 0,0 0.067,0 0.133,0.062 l 0.262,0.07 c 0.066,0.063 0.133,0.063 0.199,0.063 h 0.266 c 0.132,0.066 0.261,0.066 0.394,0 l 0.195,-0.063 c 0.137,0 0.27,-0.07 0.399,-0.132 l 0.133,-0.133 c 0.133,-0.067 0.199,-0.133 0.199,-0.199 1.508,-2.024 1.859,-4.637 2.574,-6.997 0.57,-2.171 1.074,-4.48 1.781,-6.605 0.129,-0.418 0.77,-2.254 1.125,-2.508 l -0.132,0.133 0.199,-0.266 -0.199,0.2 0.261,-0.133 -0.394,0.133 0.265,-0.067 -0.332,0.067 h 0.266 l 0.066,0.066 -0.132,-0.066 0.332,0.265 -0.133,-0.133 c 3.16,3.961 0.633,11.079 1.121,15.778 h 2.18 c -0.383,-5.875 2.273,-12.082 -1.653,-17.297 -0.066,0 -0.133,-0.067 -0.133,-0.133 l -0.394,-0.262 c 0,0 -0.067,-0.066 -0.133,-0.066 l -0.328,-0.199 -0.332,-0.067 -0.395,-0.066 -0.199,-0.067 c -0.066,0 -0.199,0 -0.332,0.067 h -0.195 c -0.133,0.066 -0.266,0.133 -0.332,0.199 l -0.266,0.133 c -0.062,0 -0.129,0.066 -0.195,0.133 l -0.199,0.261 c -0.067,0 -0.067,0.067 -0.129,0.133 -1.555,2.395 -1.961,5.59 -2.84,8.254 -0.52,1.844 -1.274,5.992 -2.445,7.656 l 0.199,-0.128 -0.199,0.128 0.398,-0.195 -0.199,0.067 0.394,-0.067 h -0.195 l 0.262,0.067 -0.262,-0.067 0.195,0.067 -0.261,-0.133 0.132,0.066 c -0.882,-0.652 -1.421,-2.316 -1.918,-3.301 -1.464,-4.007 -2.308,-8.23 -2.64,-12.48" /><path
       inkscape:connector-curvature="0"
       id="path96"
       style="fill:#0065bd;fill-opacity:1;fill-rule:nonzero;stroke:none"
       d="m 521.86753,38.06153 c -1.313,-0.734 -3.492,-1.711 -4.293,-3.106 l 0.066,0.133 -0.129,-0.32799 0.063,0.133 -0.133,-0.332 0.07,0.199 v -0.332 l -0.07,0.19899 0.07,-0.398 v 0.199 c 0.039,-1.754 6.176,-5.883 7.262,-6.734 l -1.32,-1.781 c -1.996,1.57 -7.508,5.144 -8.055,7.855 0,0.066 -0.066,0.133 -0.066,0.199 l -0.067,0.328 v 0.2 l 0.067,0.398 v 0.195 l 0.066,0.332 c 0.066,0.067 0.066,0.12901 0.066,0.12901 l 0.133,0.399 c 0.063,0 0.063,0.066 0.063,0.13199 0.984,1.727 3.527,3 5.152,3.961" /><path
       inkscape:connector-curvature="0"
       id="path98"
       style="fill:#0065bd;fill-opacity:1;fill-rule:evenodd;stroke:none"
       d="m 509.78953,46.04953 c 0,0.989 0.789,1.781 1.781,1.781 0.988,0 1.781,-0.792 1.781,-1.781 0,-0.988 -0.793,-1.781 -1.781,-1.781 -0.992,0 -1.781,0.793 -1.781,1.781" /><path
       inkscape:connector-curvature="0"
       id="path100"
       style="fill:#0065bd;fill-opacity:1;fill-rule:nonzero;stroke:none"
       d="m 509.25753,45.98353 v 0.461 c 0.067,0.066 0.067,0.066 0.067,0.13301 l 0.066,0.332 c 0.063,0 0.063,0.062 0.063,0.062 l 0.203,0.332 v 0.067 l 0.262,0.26099 c 0,0.071 0,0.071 0.066,0.071 l 0.266,0.26099 c 0,0 0.062,0 0.062,0.067 l 0.332,0.13301 0.063,0.066 0.332,0.066 c 0.066,0 0.066,0.067 0.132,0.067 h 0.86 l 0.066,-0.067 0.328,-0.066 c 0.067,0 0.067,-0.066 0.133,-0.066 l 0.266,-0.13301 c 0.066,-0.067 0.066,-0.067 0.129,-0.067 l 0.265,-0.26099 0.067,-0.071 c 0.332,-0.40999 0.433,-0.543 0.593,-1.05399 v -0.13301 l 0.067,-0.32799 v -0.13301 l -0.067,-0.328 v -0.133 l -0.132,-0.332 v -0.133 l -0.196,-0.262 c 0,-0.066 -0.066,-0.066 -0.066,-0.13199 l -0.199,-0.266 c -0.067,0 -0.067,0 -0.067,-0.063 l -0.265,-0.199 c -0.063,0 -0.063,-0.066 -0.129,-0.066 l -0.266,-0.133 c -0.066,-0.066 -0.066,-0.066 -0.133,-0.066 l -0.328,-0.13301 h -0.066 l -0.395,-0.067 h -0.133 l -0.332,0.067 h -0.132 l -0.332,0.13301 c 0,0 -0.063,0 -0.063,0.066 l -0.332,0.133 -0.062,0.066 -0.266,0.199 -0.066,0.063 -0.262,0.266 v 0.13199 l -0.203,0.262 c 0,0.066 0,0.066 -0.063,0.133 l -0.066,0.332 c 0,0 0,0.066 -0.067,0.133 z m 1.121,-0.26599 v 0.133 l 0.067,-0.328 v 0.066 l 0.133,-0.265 -0.067,0.066 0.266,-0.266 -0.133,0.067 0.262,-0.195 -0.063,0.062 0.328,-0.195 -0.132,0.062 0.332,-0.129 -0.067,0.067 0.332,-0.067 h -0.133 l 0.395,0.067 -0.133,-0.067 0.332,0.129 -0.066,-0.062 0.262,0.195 -0.067,-0.062 0.266,0.195 -0.067,-0.067 0.2,0.266 -0.067,-0.066 0.195,0.265 -0.062,-0.066 0.133,0.328 -0.071,-0.133 0.071,0.399 v -0.13301 l -0.071,0.332 0.071,-0.067 -0.133,0.329 0.062,-0.133 -0.195,0.332 0.067,-0.067 -0.2,0.262 0.067,-0.062 -0.266,0.195 0.067,-0.066 -0.262,0.132 h 0.066 l -0.332,0.067 h 0.133 l -0.395,0.066 h 0.133 l -0.332,-0.066 h 0.067 l -0.332,-0.067 h 0.132 l -0.328,-0.132 0.063,0.066 -0.262,-0.195 0.133,0.062 -0.266,-0.262 0.067,0.067 -0.133,-0.332 v 0.133 l -0.067,-0.329 v 0.067 -0.332 0.13301" /><text
       id="text102"
       transform="scale(1,-1)"
       x="63.7173"
       y="-212.41553"
       style="line-height:0%"><tspan
         y="-212.41553"
         x="63.7173"
         id="tspan104"
         sodipodi:role="line"
         style="font-variant:normal;font-weight:normal;font-size:21px;line-height:1.25;font-family:Arial;-inkscape-font-specification:ArialMT;writing-mode:lr-tb;fill:#ffffff;fill-opacity:1;fill-rule:nonzero;stroke:none">Peter Wilson's Master Thesis</tspan></text>
<text
       y="-259.29068"
       x="508.96646"
       id="text106"
       transform="scale(1,-1)"
       style="line-height:0%;text-align:end;text-anchor:end"><tspan
         id="tspan108"
         sodipodi:role="line"
         y="-259.29068"
         x="508.96646"
         style="font-variant:normal;font-weight:normal;font-size:18px;line-height:1.25;font-family:Arial;-inkscape-font-specification:ArialMT;text-align:end;writing-mode:lr-tb;text-anchor:end;fill:#ffffff;fill-opacity:1;fill-rule:nonzero;stroke:none">MASTER THESIS</tspan></text>
<text
       id="text110"
       transform="scale(1,-1)"
       x="63.223099"
       y="-134.41164"
       style="line-height:0%"><tspan
         id="tspan112"
         sodipodi:role="line"
         y="-134.41164"
         x="63.223099"
         style="font-variant:normal;font-weight:normal;font-size:14px;line-height:1.25;font-family:Arial;-inkscape-font-specification:ArialMT;writing-mode:lr-tb;fill:#ffffff;fill-opacity:1;fill-rule:nonzero;stroke:none">Peter Wilson</tspan></text>
<text
       transform="scale(1,-1)"
       id="text3097"
       y="-47.636776"
       x="121.95416"
       style="font-style:normal;font-variant:normal;font-weight:normal;font-stretch:normal;line-height:0%;font-family:Arial;-inkscape-font-specification:Arial;text-align:start;letter-spacing:0px;word-spacing:0px;writing-mode:lr-tb;text-anchor:start;fill:#848484;fill-opacity:1;stroke:none"
       xml:space="preserve"><tspan
         style="font-size:8.80000019px;line-height:1.25;fill:#848484;fill-opacity:1"
         y="-47.636776"
         x="121.95416"
         id="tspan3099"
         sodipodi:role="line">Chair of Structural Analysis</tspan><tspan
         style="font-size:8.80000019px;line-height:1.25;fill:#848484;fill-opacity:1"
         id="tspan3101"
         y="-36.636776"
         x="121.95416"
         sodipodi:role="line">Prof. Dr.-Ing. K.-U. Bletzinger</tspan><tspan
         style="font-size:8.80000019px;line-height:1.25;fill:#848484;fill-opacity:1"
         id="tspan3103"
         y="-25.636776"
         x="121.95416"
         sodipodi:role="line">Technical University of Munich</tspan></text>
<g
       style="fill:#0065bd;stroke:none"
       id="2015_Logo_TUM_RGB"
       sketch:type="MSArtboardGroup"
       transform="matrix(0.07202703,0,0,-0.07202703,64.46135,53.708451)"><path
         inkscape:connector-curvature="0"
         d="M 405,0 H 370 V 320 H 290 V 0 H 255 0 v 70 h 70 v 320 h 70 V 70 h 80 v 320 h 35 150 35 V 70 h 80 v 320 h 70 V 70 h 80 v 320 h 70 V 35 0 Z"
         id="Rectangle-1"
         sketch:type="MSShapeGroup" /></g><flowRoot
       xml:space="preserve"
       id="flowRoot4542"
       style="font-style:normal;font-weight:normal;font-size:40px;line-height:1.25;font-family:sans-serif;letter-spacing:0px;word-spacing:0px;fill:#000000;fill-opacity:1;stroke:none"
       transform="matrix(0.75,0,0,-0.75,0,841.89)"><flowRegion
         id="flowRegion4544"><rect
           id="rect4546"
           width="589.9693"
           height="136.47798"
           x="85.510323"
           y="63.519985" /></flowRegion><flowPara
         id="flowPara4548">{\Huge\bfseries{Shells &amp; Plates}}</flowPara></flowRoot></g></svg>